<?xml version="1.0" standalone="no"?>
<!DOCTYPE svg PUBLIC "-//W3C//DTD SVG 20010904//EN"
 "http://www.w3.org/TR/2001/REC-SVG-20010904/DTD/svg10.dtd">
<svg version="1.0" xmlns="http://www.w3.org/2000/svg"
 width="516.000000pt" height="516.000000pt" viewBox="0 0 516.000000 516.000000"
 preserveAspectRatio="xMidYMid meet">
<metadata>
Created by potrace 1.14, written by Peter Selinger 2001-2017
</metadata>
<g transform="translate(0.000000,516.000000) scale(0.100000,-0.100000)"
fill="#000000" stroke="none">
<path d="M2399 5156 c-2 -2 -35 -6 -74 -10 -96 -9 -135 -14 -170 -20 -16 -4
-43 -8 -60 -11 -205 -35 -562 -161 -725 -255 -8 -5 -33 -19 -55 -31 -108 -58
-324 -210 -430 -304 -131 -115 -284 -282 -375 -409 -33 -44 -68 -92 -78 -106
-70 -93 -217 -382 -271 -530 -33 -93 -97 -311 -105 -362 -3 -18 -8 -44 -11
-58 -5 -24 -10 -53 -20 -115 -28 -171 -27 -527 1 -735 8 -61 50 -259 70 -329
88 -312 232 -600 431 -861 76 -100 95 -123 202 -235 106 -111 345 -315 369
-315 5 0 15 -7 22 -15 20 -25 241 -152 361 -209 63 -29 166 -72 229 -94 98
-34 137 -47 215 -68 46 -13 250 -54 290 -58 148 -18 206 -21 370 -21 180 1
294 8 383 24 26 5 67 12 92 16 83 12 304 73 415 115 280 105 605 298 800 475
260 236 443 468 589 745 151 289 253 625 284 939 14 147 7 508 -12 621 -3 14
-7 41 -10 60 -29 183 -84 372 -169 585 -44 110 -240 461 -277 495 -3 3 -25 32
-50 65 -93 126 -267 309 -380 401 -19 16 -37 32 -40 35 -3 4 -57 44 -120 89
-174 125 -293 191 -528 297 -126 56 -403 135 -557 157 -22 4 -53 9 -70 11 -16
3 -46 8 -65 11 -40 5 -466 15 -471 10z"/>
</g>
</svg>
